<svg width="40" height="40" viewBox="0 0 40 40" fill="none" xmlns="http://www.w3.org/2000/svg">
<g clip-path="url(#clip0)">
<path d="M34.1446 33.0349C33.8395 32.7298 33.3424 32.7323 33.0373 33.0373C32.7322 33.3424 32.7322 33.8371 33.0373 34.1423C33.1899 34.2948 33.3898 34.3711 33.5897 34.3711C33.7896 34.3711 33.9895 34.2948 34.1421 34.1423L34.147 34.1373C34.4521 33.8323 34.4497 33.34 34.1446 33.0349Z" fill="#19BB4F"/>
<path d="M39.9602 18.7369C39.6544 13.8783 37.5881 9.30483 34.1421 5.85881C30.3646 2.08139 25.3422 0.000999451 20 0.000999451C14.9079 0.000999451 10.1064 1.891 6.39656 5.33944L5.54719 4.5617C5.31867 4.35241 4.98836 4.29795 4.70484 4.42287C4.42133 4.54772 4.23836 4.82819 4.23836 5.13787V10.9776C4.23836 11.409 4.5882 11.7589 5.01961 11.7589H10.8594C11.1711 11.7589 11.453 11.5736 11.5766 11.2873C11.7002 11.0012 11.6418 10.6688 11.428 10.4419L10.0527 8.98209C15.8724 3.72248 24.8886 3.89623 30.4966 9.50444C36.2845 15.2922 36.2845 24.7098 30.4966 30.4976C27.6929 33.3013 23.9651 34.8455 20 34.8455C16.0349 34.8455 12.3071 33.3013 9.50344 30.4976C6.69961 27.6938 5.15547 23.9662 5.15547 20.001C5.15547 19.5696 4.80562 19.2197 4.37422 19.2197H0.78125C0.349844 19.2197 0 19.5696 0 20.001C0 25.3432 2.08039 30.3656 5.85781 34.1432C9.2807 37.5661 13.8227 39.6302 18.6469 39.9555C19.0983 39.9859 19.5487 40.0009 19.9986 40.0009C24.31 40.0009 28.5165 38.6125 31.9698 36.0267C32.3152 35.768 32.3854 35.2784 32.1269 34.933C31.8681 34.5877 31.3786 34.5174 31.0332 34.7759C23.7529 40.2274 13.4047 39.4804 6.96266 33.0383C3.66492 29.7406 1.77023 25.414 1.57859 20.7822H3.61109C3.80148 24.8715 5.48438 28.6884 8.39852 31.6025C14.7956 37.9996 25.2044 37.9996 31.6015 31.6025C37.9985 25.2054 37.9985 14.7966 31.6015 8.39952C25.2044 2.00241 14.7956 2.00241 8.39852 8.39952C8.09984 8.69819 8.09266 9.18022 8.38234 9.48772L9.05 10.1964H5.80086V6.91256L5.88273 6.98748C6.19102 7.26983 6.66695 7.25944 6.96273 6.96373C10.4451 3.48131 15.0752 1.5635 20 1.5635C24.9248 1.5635 29.5549 3.48131 33.0373 6.96373C39.5404 13.4669 40.2427 23.874 34.671 31.1718C34.4091 31.5147 34.4749 32.005 34.8179 32.2669C35.1607 32.5288 35.6511 32.463 35.913 32.12C38.8261 28.3045 40.2634 23.5516 39.9602 18.7369Z" fill="#19BB4F"/>
<path d="M14.1712 22.5781H11.8068C11.9098 22.4837 12.014 22.3861 12.1183 22.2857C13.5965 20.8625 14.3151 19.6563 14.3151 18.598C14.3151 16.9599 13.2145 15.8594 11.5764 15.8594C10.0663 15.8594 8.83771 17.088 8.83771 18.598C8.83771 19.0295 9.18755 19.3793 9.61896 19.3793C10.0504 19.3793 10.4002 19.0295 10.4002 18.598C10.4002 17.9495 10.9279 17.4219 11.5764 17.4219C12.7526 17.4219 12.7526 18.3071 12.7526 18.598C12.7526 19.6855 10.6558 21.6645 9.16708 22.7222C8.88966 22.919 8.77146 23.2726 8.87466 23.5966C8.97794 23.9205 9.27896 24.1406 9.61904 24.1406H14.1712C14.6026 24.1406 14.9525 23.7908 14.9525 23.3594C14.9525 22.928 14.6026 22.5781 14.1712 22.5781Z" fill="#19BB4F"/>
<path d="M19.8986 20.1173H19.3653V19.8959C19.3653 19.4645 19.0155 19.1147 18.5841 19.1147C18.1526 19.1147 17.8028 19.4645 17.8028 19.8959V20.1173H16.7248L18.4826 17.027C18.6959 16.6519 18.5649 16.1749 18.1898 15.9616C17.8151 15.7484 17.3378 15.8793 17.1244 16.2544L14.7026 20.5122C14.565 20.7541 14.5665 21.0508 14.7063 21.2913C14.8462 21.5318 15.1034 21.6798 15.3817 21.6798H17.8028V23.3595C17.8028 23.7909 18.1526 24.1407 18.5841 24.1407C19.0155 24.1407 19.3653 23.7909 19.3653 23.3595V21.6798H19.8986C20.33 21.6798 20.6798 21.3299 20.6798 20.8985C20.6798 20.4671 20.33 20.1173 19.8986 20.1173Z" fill="#19BB4F"/>
<path d="M24.8088 15.9116C24.4059 15.7567 23.9541 15.9574 23.7991 16.3602L21.2143 23.0789C21.0594 23.4816 21.2602 23.9336 21.6629 24.0886C21.7552 24.1241 21.85 24.1409 21.9433 24.1409C22.2571 24.1409 22.5532 23.9505 22.6726 23.64L25.2574 16.9212C25.4123 16.5186 25.2115 16.0666 24.8088 15.9116Z" fill="#19BB4F"/>
<path d="M31.0225 16.1949C30.8765 15.9848 30.6368 15.8595 30.381 15.8595H27.0997C26.6683 15.8595 26.3185 16.2093 26.3185 16.6407C26.3185 17.0721 26.6683 17.422 27.0997 17.422H29.2567L27.1488 23.087C26.9983 23.4913 27.2042 23.9412 27.6086 24.0916C27.6983 24.1251 27.7904 24.1409 27.8809 24.1409C28.1979 24.1409 28.4961 23.9465 28.6132 23.6319L31.1132 16.9131C31.2025 16.6734 31.1686 16.405 31.0225 16.1949Z" fill="#19BB4F"/>
</g>
<defs>
<clipPath id="clip0">
<rect width="40" height="40" fill="white"/>
</clipPath>
</defs>
</svg>
