<svg width="20" height="20" viewBox="0 0 20 20" fill="none" xmlns="http://www.w3.org/2000/svg">
<path d="M10 12.6666C11.4728 12.6666 12.6667 11.4727 12.6667 9.99992C12.6667 8.52716 11.4728 7.33325 10 7.33325C8.52728 7.33325 7.33337 8.52716 7.33337 9.99992C7.33337 11.4727 8.52728 12.6666 10 12.6666Z" stroke="#19BB4F" stroke-width="1.5" stroke-linecap="round" stroke-linejoin="round"/>
<path d="M12.6667 7.33333V10.6667C12.6667 11.1971 12.8774 11.7058 13.2525 12.0809C13.6276 12.4559 14.1363 12.6667 14.6667 12.6667C15.1971 12.6667 15.7059 12.4559 16.0809 12.0809C16.456 11.7058 16.6667 11.1971 16.6667 10.6667V9.99999C16.6666 8.49535 16.1575 7.03498 15.2222 5.85635C14.2869 4.67772 12.9804 3.85014 11.5151 3.50819C10.0499 3.16624 8.512 3.33002 7.15161 3.9729C5.79122 4.61579 4.68831 5.69996 4.02222 7.04914C3.35613 8.39832 3.16602 9.93315 3.48283 11.4041C3.79963 12.875 4.6047 14.1955 5.76713 15.1508C6.92957 16.1062 8.381 16.6402 9.88543 16.6661C11.3899 16.692 12.8588 16.2082 14.0534 15.2933" stroke="#19BB4F" stroke-width="1.5" stroke-linecap="round" stroke-linejoin="round"/>
</svg>
