<svg width="40" height="40" viewBox="0 0 40 40" fill="none" xmlns="http://www.w3.org/2000/svg">
<g clip-path="url(#clip0)">
<path d="M38.8572 9.68928C38.8572 7.87989 37.3854 6.40802 35.576 6.40802C34.647 6.40802 33.8075 6.79682 33.2099 7.41938L20.405 0.0264743C20.1633 -0.112991 19.8658 -0.112991 19.6241 0.0264743L6.81887 7.41938C6.22134 6.79682 5.3821 6.40802 4.45314 6.40802C2.64375 6.40802 1.17188 7.87989 1.17188 9.68928C1.17188 11.2292 2.23848 12.5241 3.67189 12.8756V27.6563C3.67189 27.9352 3.82082 28.1931 4.06252 28.3328L16.8635 35.7236C16.7786 36.0147 16.7322 36.3224 16.7322 36.6407C16.7322 38.4497 18.2041 39.9219 20.0135 39.9219C21.8226 39.9219 23.2944 38.4497 23.2944 36.6407C23.2944 36.3227 23.2484 36.0157 23.1635 35.7245L35.9666 28.3328C36.2083 28.1934 36.3572 27.9352 36.3572 27.6563V12.8756C37.7906 12.5241 38.8572 11.2292 38.8572 9.68928ZM2.73439 9.68928C2.73439 8.7414 3.50526 7.97053 4.45314 7.97053C5.40072 7.97053 6.17159 8.7414 6.17159 9.68928C6.17159 10.6369 5.40072 11.408 4.45314 11.408C3.50526 11.408 2.73439 10.6369 2.73439 9.68928ZM20.0135 38.3594C19.0656 38.3594 18.2947 37.5885 18.2947 36.6407C18.2947 35.6931 19.0656 34.9219 20.0135 34.9219C20.9611 34.9219 21.7322 35.6931 21.7322 36.6407C21.7322 37.5885 20.9611 38.3594 20.0135 38.3594ZM22.3811 34.3723C21.7832 33.7488 20.9434 33.3594 20.0135 33.3594C19.0842 33.3594 18.2444 33.7485 17.6468 34.3714L5.23439 27.2052V12.8756C6.6675 12.5241 7.7341 11.2292 7.7341 9.68928C7.7341 9.37068 7.68771 9.06275 7.60257 8.77101L20.0144 1.60515L32.4265 8.77101C32.3414 9.06275 32.295 9.37037 32.295 9.68928C32.295 11.2292 33.3616 12.5241 34.7947 12.8756V27.2052L22.3811 34.3723ZM35.576 11.408C34.6284 11.408 33.8572 10.6369 33.8572 9.68928C33.8572 8.7414 34.6284 7.97053 35.576 7.97053C36.5238 7.97053 37.2947 8.7414 37.2947 9.68928C37.2947 10.6369 36.5238 11.408 35.576 11.408Z" fill="#19BB4F"/>
<path d="M30.7174 12.0414L20.4049 6.08769C20.1631 5.94823 19.8656 5.94823 19.6239 6.08769L9.31137 12.0414C9.06967 12.1812 8.92075 12.439 8.92075 12.718V24.6257C8.92075 24.9046 9.06967 25.1628 9.31137 25.3022L19.6239 31.2562C19.7448 31.3258 19.8793 31.3609 20.0142 31.3609C20.1494 31.3609 20.284 31.3258 20.4049 31.2562L30.7174 25.3022C30.9591 25.1628 31.108 24.9046 31.108 24.6257V12.718C31.108 12.439 30.9591 12.1812 30.7174 12.0414ZM20.0142 7.66637L28.7642 12.718L20.0142 17.7699L11.2645 12.718L20.0142 7.66637ZM20.7955 29.2265V25.7032C20.7955 25.2717 20.4457 24.922 20.0142 24.922C19.583 24.922 19.2333 25.2717 19.2333 25.7032V29.2265L10.4833 24.1746V14.0711L19.6239 19.3485C19.7448 19.4181 19.8793 19.4532 20.0142 19.4532C20.1494 19.4532 20.284 19.4181 20.4049 19.3485L29.5455 14.0711V24.1746L20.7955 29.2265Z" fill="#19BB4F"/>
<path d="M20.0138 21.4062C19.8075 21.4062 19.6067 21.4896 19.4605 21.6351C19.3152 21.7804 19.2316 21.9818 19.2316 22.1875C19.2316 22.3929 19.3152 22.5943 19.4605 22.7396C19.6067 22.8851 19.8075 22.9688 20.0138 22.9688C20.2192 22.9688 20.4209 22.8851 20.5661 22.7396C20.7114 22.5943 20.795 22.3929 20.795 22.1875C20.795 21.9818 20.7114 21.7804 20.5661 21.6351C20.4209 21.4896 20.2192 21.4062 20.0138 21.4062Z" fill="#19BB4F"/>
</g>
<defs>
<clipPath id="clip0">
<rect width="40" height="40" fill="white"/>
</clipPath>
</defs>
</svg>
