<svg width="40" height="40" viewBox="0 0 40 40" fill="none" xmlns="http://www.w3.org/2000/svg">
<path d="M38.125 27.7605V5.50781C38.125 4.19391 37.056 3.125 35.7422 3.125H30.0781V2.34375C30.0781 1.05141 29.0267 0 27.7344 0C26.442 0 25.3906 1.05141 25.3906 2.34375V3.125H12.7344V2.34375C12.7344 1.05141 11.683 0 10.3906 0C9.09828 0 8.04688 1.05141 8.04688 2.34375V3.125H2.38281C1.06898 3.125 0 4.19391 0 5.50781V34.4922C0 35.8061 1.06898 36.875 2.38281 36.875H13.0313C13.4627 36.875 13.8126 36.5252 13.8126 36.0938C13.8126 35.6623 13.4627 35.3125 13.0313 35.3125H2.38281C1.93047 35.3125 1.5625 34.9445 1.5625 34.4922V5.50781C1.5625 5.05547 1.93047 4.6875 2.38281 4.6875H8.04688V5.46875C8.04688 6.76109 9.09828 7.8125 10.3906 7.8125C11.683 7.8125 12.7344 6.76109 12.7344 5.46875V4.6875H25.3906V5.46875C25.3906 6.76109 26.442 7.8125 27.7344 7.8125C29.0267 7.8125 30.0781 6.76109 30.0781 5.46875V4.6875H35.7422C36.1945 4.6875 36.5625 5.05547 36.5625 5.50781V9.375H7.03125C6.59984 9.375 6.25 9.72477 6.25 10.1562C6.25 10.5877 6.59984 10.9375 7.03125 10.9375H36.5625V26.4404C35.8973 26.0209 35.1606 25.7052 34.375 25.5161V13.9062C34.375 13.4748 34.0252 13.125 33.5938 13.125H4.53125C4.09984 13.125 3.75 13.4748 3.75 13.9062V32.3438C3.75 32.7752 4.09984 33.125 4.53125 33.125H25.3279C25.3764 33.8918 25.5429 34.627 25.8098 35.3125H19.2812C18.8498 35.3125 18.5 35.6623 18.5 36.0938C18.5 36.5252 18.8498 36.875 19.2812 36.875H26.6487C27.9789 38.7636 30.1758 40 32.6562 40C36.7056 40 40 36.7056 40 32.6562C40 30.777 39.2902 29.0608 38.125 27.7605ZM11.1719 5.46875C11.1719 5.89953 10.8214 6.25 10.3906 6.25C9.95984 6.25 9.60938 5.89953 9.60938 5.46875V2.34375C9.60938 1.91297 9.95984 1.5625 10.3906 1.5625C10.8214 1.5625 11.1719 1.91297 11.1719 2.34375V5.46875ZM28.5156 5.46875C28.5156 5.89953 28.1652 6.25 27.7344 6.25C27.3036 6.25 26.9531 5.89953 26.9531 5.46875V2.34375C26.9531 1.91297 27.3036 1.5625 27.7344 1.5625C28.1652 1.5625 28.5156 1.91297 28.5156 2.34375V5.46875ZM32.6562 25.3125C32.293 25.3125 31.936 25.3395 31.5867 25.3906H28.5625V20.8594H32.8125V25.3145C32.7605 25.3134 32.7085 25.3125 32.6562 25.3125ZM25.394 31.5625H22.75V26.9531H27V27.9777C26.167 28.983 25.5963 30.2134 25.394 31.5625ZM5.3125 20.8594H9.5625V25.3906H5.3125V20.8594ZM11.125 20.8594H15.375V25.3906H11.125V20.8594ZM22.75 20.8594H27V25.3906H22.75V20.8594ZM21.1875 25.3906H16.9375V20.8594H21.1875V25.3906ZM22.75 19.2969V14.6875H27V19.2969H22.75ZM21.1875 19.2969H16.9375V14.6875H21.1875V19.2969ZM15.375 19.2969H11.125V14.6875H15.375V19.2969ZM15.375 26.9531V31.5625H11.125V26.9531H15.375ZM16.9375 26.9531H21.1875V31.5625H16.9375V26.9531ZM32.8125 19.2969H28.5625V14.6875H32.8125V19.2969ZM9.5625 14.6875V19.2969H5.3125V14.6875H9.5625ZM5.3125 26.9531H9.5625V31.5625H5.3125V26.9531ZM32.6562 38.4375C29.4684 38.4375 26.875 35.8441 26.875 32.6562C26.875 29.4684 29.4684 26.875 32.6562 26.875C35.8441 26.875 38.4375 29.4684 38.4375 32.6562C38.4375 35.8441 35.8441 38.4375 32.6562 38.4375Z" fill="#19BB4F"/>
<path d="M34.9165 30.7626L32.5002 33.179L31.425 32.1038C31.12 31.7987 30.6255 31.7987 30.3201 32.1038C30.015 32.4089 30.015 32.9036 30.3201 33.2087L31.9477 34.8362C32.0943 34.9827 32.2929 35.0651 32.5001 35.0651C32.7073 35.0651 32.906 34.9827 33.0525 34.8362L36.0213 31.8675C36.3264 31.5624 36.3264 31.0677 36.0213 30.7626C35.7162 30.4576 35.2217 30.4576 34.9165 30.7626Z" fill="#19BB4F"/>
<path d="M16.1565 35.3125C15.951 35.3125 15.7495 35.3961 15.6041 35.5414C15.4589 35.6867 15.3752 35.8883 15.3752 36.0938C15.3752 36.2992 15.4588 36.5008 15.6041 36.6461C15.7495 36.7914 15.951 36.875 16.1565 36.875C16.362 36.875 16.5635 36.7914 16.7088 36.6461C16.8541 36.5008 16.9377 36.2992 16.9377 36.0938C16.9377 35.8883 16.8541 35.6867 16.7088 35.5414C16.5635 35.3961 16.362 35.3125 16.1565 35.3125Z" fill="#19BB4F"/>
<path d="M4.45852 10.7086C4.60391 10.5633 4.6875 10.3617 4.6875 10.1562C4.6875 9.95078 4.60391 9.74922 4.45852 9.60391C4.31328 9.45859 4.11172 9.375 3.90625 9.375C3.69992 9.375 3.49922 9.45859 3.35391 9.60391C3.20859 9.74922 3.125 9.95078 3.125 10.1562C3.125 10.3617 3.20852 10.5633 3.35391 10.7086C3.4993 10.8539 3.69992 10.9375 3.90625 10.9375C4.11172 10.9375 4.31328 10.8539 4.45852 10.7086Z" fill="#19BB4F"/>
</svg>
