<svg width="20" height="20" viewBox="0 0 20 20" fill="none" xmlns="http://www.w3.org/2000/svg">
<path d="M15.8941 5.07333C15.5536 4.73267 15.1493 4.46243 14.7043 4.27805C14.2593 4.09368 13.7824 3.99878 13.3007 3.99878C12.8191 3.99878 12.3421 4.09368 11.8972 4.27805C11.4522 4.46243 11.0479 4.73267 10.7074 5.07333L10.0007 5.78L9.29406 5.07333C8.60627 4.38553 7.67342 3.99914 6.70073 3.99914C5.72804 3.99914 4.79519 4.38553 4.1074 5.07333C3.4196 5.76112 3.0332 6.69397 3.0332 7.66666C3.0332 8.63935 3.4196 9.5722 4.1074 10.26L4.81406 10.9667L10.0007 16.1533L15.1874 10.9667L15.8941 10.26C16.2347 9.91949 16.505 9.51521 16.6893 9.07023C16.8737 8.62526 16.9686 8.14832 16.9686 7.66666C16.9686 7.185 16.8737 6.70807 16.6893 6.26309C16.505 5.81812 16.2347 5.41383 15.8941 5.07333V5.07333Z" stroke="#262626" stroke-width="1.5" stroke-linecap="round" stroke-linejoin="round"/>
</svg>
