<svg xmlns="http://www.w3.org/2000/svg" width="160" height="40" viewBox="0 0 160 40">
  <g fill="none" fill-rule="evenodd">
    <rect width="160" height="40" fill="#FFF"/>
    <g fill="#19BB4F">
      <path fill-rule="nonzero" stroke="#19BB4F" stroke-width=".5" d="M12.2312051 10.5677544C12.2312051 10.7092869 12.2152221 11.2282391 12.1512898 11.4012232L7.58013218 11.4012232C7.53218297 11.1653358 7.50021684 10.8508193 7.51619991 10.6463836L8.18748879 10.4576737C8.87476074 10.2689638 9.05057449 9.45122086 9.05057449 8.99517193L9.08254063 7.10807292 9.08254063 1.35242095 3.08888991 1.35242095 3.08888991 7.10807292 3.15282218 9.62420493C3.16880525 10.0016247 3.24872059 10.1431572 3.50444969 10.2060605L5.03882427 10.6149319C5.03882427 10.7564643 5.02284121 11.2282391 4.95890893 11.4012232L.0680899434 11.4012232C.0201407376 11.1653358-.0118253995 10.9137226.00415766906 10.7092869L.931175647 10.3790445C1.37870157 10.2060605 1.6184476 9.57702746 1.6184476 9.12097853L1.65041373 7.10807292 1.65041373 2.26451881C1.65041373 1.82419571 1.53853225 1.36814678 1.17092168 1.258066L.00415766906.927823678C.00415766906.786291253.0201407376.456048927.0680899434.283064851L11.8476115.283064851C11.8476115.534678052 11.8635946.786291253 11.8156454.990726978L10.9845258 1.17943688C10.6488813 1.27379183 10.5210168 1.36814678 10.5210168 1.79274406L10.5210168 7.10807292 10.5849491 9.63993076C10.5849491 10.0173506 10.6808475 10.2217863 10.8886274 10.2689638L12.2312051 10.5677544zM22.2046399 3.66411724C22.2046399 5.64557119 20.814113 7.1552504 17.7293807 7.1552504L17.4257024 7.1552504 17.4257024 6.18024925 17.8252791 6.16452342C19.5834167 6.10162012 20.6223161 5.51976459 20.6223161 3.74274636 20.6223161 2.28024463 19.9350442 1.36814678 18.1449405 1.33669513L16.3388538 1.30524348 16.3388538 7.10807292 16.3708199 9.52984998C16.3708199 9.90726978 16.4507352 10.1431572 16.7384305 10.2060605L18.3687035 10.6306577C18.3687035 10.7721902 18.3527204 11.2282391 18.2887881 11.4012232L13.3500199 11.4012232C13.3020707 11.1653358 13.2701046 10.9137226 13.2860877 10.7092869L14.2131056 10.426222C14.5807162 10.3161412 14.8204623 10.0330764 14.8364453 9.45122086L14.8843945 7.10807292 14.8843945 1.93427648C14.8843945 1.68266328 14.772513 1.39959843 14.5008009 1.30524348L13.3020707.896372028C13.2860877.770565428 13.3020707.487500577 13.3819861.283064851L18.5605003.283064851C20.7981299.283064851 22.2046399 1.33669513 22.2046399 3.66411724zM34.7833149 5.42540964C34.7833149 8.85363951 32.6096176 11.5899331 28.9974441 11.5899331 25.4971521 11.5899331 23.4673024 9.62420493 23.4673024 6.22742672 23.4673024 2.70484191 25.8327965.110080775 29.3011224.110080775 32.929279.110080775 34.7833149 2.15443803 34.7833149 5.42540964zM33.0251774 5.67702284C33.0251774 3.05081006 31.9223456 1.21088853 29.1572748 1.21088853 26.2643394 1.21088853 25.2254399 3.36532656 25.2254399 5.9600877 25.2254399 8.4762197 26.2163902 10.4576737 29.0453933 10.4576737 32.0502102 10.4576737 33.0251774 8.30323563 33.0251774 5.67702284zM35.9340959 14.2790491L35.9340959 10.3318671 37.1647921 10.3318671C37.836081 9.21533348 38.3635223 7.92581583 38.5553191 7.3439603 38.8589974 6.44758827 39.4184048 2.97218094 39.4343879 2.13871221 39.4343879 1.74556658 39.3704556 1.3838726 39.0348112 1.27379183L38.1077932.927823678C38.1077932.786291253 38.1237763.456048927 38.1717255.283064851L46.5628365.283064851C46.5628365.534678052 46.5788195.786291253 46.5308703.990726978L45.6997508 1.17943688C45.3641063 1.27379183 45.2362418 1.36814678 45.2362418 1.79274406L45.2362418 7.0923471 45.3161571 10.3318671 47.0103624 10.3318671 47.0103624 14.2475975C46.8345486 14.2790491 46.3071074 14.294775 46.1792428 14.2318717 45.987446 13.5084837 45.4759878 11.4012232 44.3731561 11.4012232L38.9069466 11.4012232C36.8451308 11.4012232 36.9570122 13.5399354 36.7652154 14.2633233 36.6373509 14.3262266 36.1099096 14.3105008 35.9340959 14.2790491zM38.5872852 10.3318671L43.7178503 10.3318671 43.7817825 7.0923471 43.7817825 1.35242095 40.633118 1.35242095C40.4573043 3.55403646 39.9138799 6.62057235 39.7380662 7.3439603 39.5302863 8.19315485 38.9548958 9.46694668 38.5872852 10.3318671zM58.9337316 10.7092869C58.9337316 10.8508193 58.9177485 11.2282391 58.8697993 11.4012232L54.4904385 11.4012232C54.4424893 11.1653358 54.4265062 10.9294484 54.4265062 10.7092869L55.5613041 10.3790445C55.8649824 10.3004154 56.0407961 9.95444726 56.0407961 9.59275328 56.0407961 9.45122086 56.00883 9.32541426 55.9768639 9.19960766L55.2096766 6.9036372 51.2458756 6.9036372 50.2549253 9.35686591C50.2229592 9.43549503 50.2069761 9.52984998 50.2069761 9.60847911 50.2069761 9.97017308 50.4786883 10.3004154 51.0061295 10.4576737L51.8851983 10.7092869C51.8851983 10.8508193 51.8692152 11.2282391 51.821266 11.4012232L48.0013126 11.4012232C47.9533634 11.1653358 47.9373804 10.9137226 47.9373804 10.7092869 48.4648216 10.3318671 48.8004661 9.93872143 49.008246 9.45122086L52.8441824.424597276 54.3306078 0 57.7190183 9.27823678C57.8948321 9.73428571 58.4222734 10.3633187 58.9337316 10.7092869zM54.8740321 5.88145857L53.8191496 2.62621278 53.4835052 1.39959843 53.3716237 1.39959843 52.972047 2.59476113 51.6614353 5.88145857 54.8740321 5.88145857zM65.103196 11.4012232C65.0552468 11.1653358 65.0232807 10.9137226 65.0392638 10.7092869L66.0941463 10.3475929C66.5097061 10.2060605 66.6855198 9.76573736 66.7015029 9.29396261L66.733469 7.10807292 66.733469 2.23306716C66.733469 1.85564736 66.5896214 1.3838726 66.253977 1.258066L65.2949929.927823678C65.2630267.786291253 65.2630267.456048927 65.3109759.283064851L69.4985399.283064851C69.5464891.518952227 69.5784552.691936302 69.5624722.896372028L68.7633187 1.1951627C68.363742 1.35242095 68.1879283 1.88709901 68.1879283 2.31169628L68.1879283 6.98226632 68.2198944 9.70283406C68.2198944 10.0959797 68.3317759 10.2060605 68.5555388 10.2689638L69.5944383 10.5992061C69.5944383 10.7407385 69.5784552 11.2282391 69.514523 11.4012232L65.103196 11.4012232zM75.4282583 11.7471913C74.2934605 11.7000138 73.2066118 11.3854973 72.6152383 10.7250127L68.6034881 6.19597507 68.6034881 5.51976459 72.1836954 2.15443803C72.4234414 1.95000231 72.5033568 1.74556658 72.5033568 1.58830833 72.5033568 1.39959843 72.3914753 1.258066 72.2316446 1.21088853L71.144796.975001153C71.144796.833468728 71.144796.456048927 71.2087282.283064851L74.9487663.283064851 74.9487663.975001153 70.0419642 5.51976459 73.4463578 9.27823678C74.0696975 9.95444726 74.9487663 10.6306577 75.6040721 10.8508193L75.4282583 11.7471913zM59.493139 11.7471913L59.3173252 10.8508193C59.972631 10.6306577 60.8516998 9.95444726 61.4750395 9.27823678L64.8794331 5.51976459 59.972631.975001153 59.972631.283064851 63.7126691.283064851C63.7766013.456048927 63.7766013.833468728 63.7766013.975001153L62.6897527 1.21088853C62.529922 1.258066 62.4180405 1.39959843 62.4180405 1.58830833 62.4180405 1.74556658 62.4979559 1.95000231 62.7377019 2.15443803L66.3179092 5.51976459 66.3179092 6.19597507 62.306159 10.7250127C61.7147855 11.3854973 60.6279368 11.7000138 59.493139 11.7471913zM87 10.7092869C87 10.8508193 86.9840169 11.2282391 86.9360677 11.4012232L82.5567069 11.4012232C82.5087577 11.1653358 82.4927747 10.9294484 82.4927747 10.7092869L83.6275725 10.3790445C83.9312508 10.3004154 84.1070646 9.95444726 84.1070646 9.59275328 84.1070646 9.45122086 84.0750984 9.32541426 84.0431323 9.19960766L83.275945 6.9036372 79.312144 6.9036372 78.3211938 9.35686591C78.2892276 9.43549503 78.2732446 9.52984998 78.2732446 9.60847911 78.2732446 9.97017308 78.5449567 10.3004154 79.072398 10.4576737L79.9514668 10.7092869C79.9514668 10.8508193 79.9354837 11.2282391 79.8875345 11.4012232L76.0675811 11.4012232C76.0196319 11.1653358 76.0036488 10.9137226 76.0036488 10.7092869 76.5310901 10.3318671 76.8667345 9.93872143 77.0745144 9.45122086L80.9104509.424597276 82.3968762 0 85.7852868 9.27823678C85.9611005 9.73428571 86.4885418 10.3633187 87 10.7092869zM82.9403006 5.88145857L81.8854181 2.62621278 81.5497736 1.39959843 81.4378921 1.39959843 81.0383154 2.59476113 79.7277038 5.88145857 82.9403006 5.88145857zM1.95090948 35.0321386L1.95090948 29.2973091C1.95090948 29.0184116 1.80936741 28.7046519 1.52628327 28.6000654L.199326376 28.146857C.181633618 28.0074082.199326376 27.6936485.287790169 27.4670443L9.09878395 27.4670443 9.09878395 30.3780368C8.9041636 30.412899 8.3910736 30.4303301 8.24953153 30.3606057 8.03721843 29.5413444 7.78951981 28.8615318 6.6394905 28.7918074L3.54325775 28.6000654 3.54325775 32.6789411 5.96716568 32.6789411C8.70954326 32.6789411 10.0365002 34.0559974 10.0365002 36.1825907 10.0365002 38.3789084 8.6918505 39.8256891 5.27714809 39.808258L.0577843076 39.7908269C.0223987904 39.5293605-.0129867268 39.1807386.00470603181 38.9541344L1.20781362 38.6403748C1.61474706 38.5357882 1.88013844 38.1000109 1.8978312 37.6119403L1.95090948 35.0321386zM3.54325775 33.8119621L3.54325775 38.7100991 5.36561188 38.7100991C7.31181533 38.6403748 8.28491705 38.2394596 8.28491705 36.2697462 8.28491705 34.6835167 7.3648936 33.8816865 5.45407568 33.8468243L3.54325775 33.8119621zM25.2345798 38.866979C25.2345798 39.0238588 25.216887 39.5990849 25.146116 39.7908269L20.085987 39.7908269C20.0329088 39.5293605 19.9975232 39.1807386 20.015216 38.9541344L20.7583119 38.7449613C21.5191005 38.5357882 21.7137208 37.6293714 21.7137208 37.1238697L21.7491063 35.0321386 21.7491063 31.0229873 14.8489305 37.4376294C14.8489305 37.8385445 14.8489305 38.3440462 15.3089422 38.4660638L17.007447 38.9192723C17.007447 39.0761521 16.9897543 39.5990849 16.9189832 39.7908269L11.5049991 39.7908269C11.4519208 39.5293605 11.4165353 39.250463 11.4342281 39.0238588L12.4604081 38.6578059C12.9558053 38.4660638 13.2211967 37.7688201 13.2211967 37.2633184L13.2565822 35.0321386 13.2565822 29.663362C13.2565822 29.1752914 13.1327329 28.6697897 12.7257995 28.5477721L11.4342281 28.1817191C11.4342281 28.0248393 11.4519208 27.6587864 11.5049991 27.4670443L16.3174294 27.4670443C16.3705077 27.7285107 16.4058932 28.0248393 16.3882005 28.2514435L15.397406 28.4780477C14.9197015 28.6000654 14.8489305 28.7569452 14.8489305 29.1927225L14.8489305 35.9036932 21.7491063 29.4890511C21.7491063 29.3670334 21.7137208 29.2450158 21.6783353 29.1229981 21.5721787 28.8441007 21.3775584 28.6174965 21.0237032 28.4954788L20.1567581 28.1817191C20.1567581 28.0248393 20.1213725 27.6587864 20.1744508 27.4670443L24.8099536 27.4670443C24.8099536 27.7459418 24.8276463 28.0248393 24.7745681 28.2514435L23.8545446 28.4606166C23.4829967 28.5652032 23.3414546 28.6697897 23.3414546 29.1404292L23.3414546 35.0321386 23.4122256 37.8385445C23.4122256 38.2568907 23.5183822 38.4834949 23.7483881 38.5357882L25.2345798 38.866979zM30.6485639 40C29.2685287 40 27.9769574 39.7559647 26.8446208 39.2156008L27.3754036 37.9257C28.0300356 38.2568907 29.1446794 38.7449613 30.7193349 38.7449613 32.4178398 38.7449613 33.4617125 37.8211134 33.4617125 36.2871773 33.4617125 34.8926898 32.3470687 34.0734285 30.7370277 34.0734285 30.2062449 34.0734285 29.5162274 34.0908596 28.9854446 34.1257218L28.9854446 32.7660965C29.4985346 32.8183898 30.2062449 32.8183898 30.7193349 32.8183898 32.0816773 32.8183898 32.9309298 31.8771108 32.9309298 30.5000545 32.9309298 29.0184116 31.7278222 28.4083233 30.5601001 28.4083233 29.0739084 28.4083233 28.224656 29.279878 27.9592646 30.5697788L27.2161687 30.5697788 27.2161687 27.9202528C28.0477284 27.5019065 29.3039143 27.2753023 30.6839494 27.2753023 32.8070805 27.2753023 34.7709767 28.1294259 34.7709767 30.3954679 34.7709767 31.6156444 33.8863387 32.853252 32.5416891 33.236736L32.5416891 33.2715982C34.0455736 33.4982024 35.3017594 34.4220503 35.3017594 36.043142 35.3017594 38.675237 33.3378632 40 30.6485639 40zM50.5706101 38.866979C50.5706101 39.0238588 50.5529173 39.5990849 50.4821463 39.7908269L45.4220173 39.7908269C45.368939 39.5293605 45.3335535 39.1807386 45.3512463 38.9541344L46.0943421 38.7449613C46.8551308 38.5357882 47.0320584 38.0825798 47.0497511 37.1238697L47.0851366 35.0321386 47.0851366 34.178015 40.1849608 34.178015 40.1849608 35.0321386 40.2557318 37.8211134C40.2734246 38.2394596 40.3618884 38.3963395 40.6449725 38.4660638L42.3434773 38.9192723C42.3434773 39.0761521 42.3257846 39.5990849 42.2550135 39.7908269L36.8410294 39.7908269C36.7879511 39.5293605 36.7525656 39.250463 36.7702584 39.0238588L37.7964384 38.6578059C38.2918356 38.4660638 38.5395342 37.9954243 38.557227 37.2633184L38.5926125 35.0321386 38.5926125 29.663362C38.5926125 29.1752914 38.4687632 28.6697897 38.0618298 28.5477721L36.7702584 28.1817191C36.7702584 28.0248393 36.7879511 27.6587864 36.8410294 27.4670443L41.6534597 27.4670443C41.706538 27.7285107 41.7419235 28.0248393 41.7242308 28.2514435L40.7334363 28.4780477C40.2557318 28.6000654 40.1849608 28.7569452 40.1849608 29.1927225L40.1849608 33.0275629 47.0851366 33.0275629 47.0851366 29.8376729C47.0851366 29.1229981 46.8551308 28.6697897 46.3597335 28.4954788L45.4927884 28.1817191C45.4927884 28.0248393 45.4574028 27.6587864 45.5104811 27.4670443L50.1459839 27.4670443C50.1459839 27.7459418 50.1636766 28.0248393 50.1105983 28.2514435L49.1905749 28.4606166C48.819027 28.5652032 48.6774849 28.6697897 48.6774849 29.1404292L48.6774849 35.0321386 48.7482559 37.8385445C48.7482559 38.2568907 48.8544125 38.4834949 49.0844183 38.5357882L50.5706101 38.866979zM61.8232045 36.9146966L61.4870421 39.7908269 51.8798742 39.7908269C51.8267959 39.5293605 51.7914104 39.1633075 51.8091032 38.9367033L53.0122108 38.6229437C53.4545297 38.500926 53.7022283 38.1000109 53.7022283 37.6119403L53.7553066 35.0147075 53.7553066 29.2973091C53.7553066 29.0184116 53.6314573 28.7046519 53.3306804 28.6000654L52.0037235 28.146857C51.9860308 28.0074082 52.0037235 27.6936485 52.0921873 27.4670443L61.0801087 27.4670443 61.0801087 30.2560192C60.761639 30.2908814 60.3547056 30.2734503 60.1600852 30.2734503 59.9654649 29.2275847 59.6469952 28.722083 58.7623573 28.7046519L55.3653476 28.6000654 55.3653476 33.0275629 60.1600852 32.9404075 60.1600852 34.2651705 55.3653476 34.178015 55.3653476 35.0321386 55.4538114 38.6403748 58.7623573 38.5880815C60.0716214 38.5706504 60.761639 37.5770781 61.0270304 36.7926789L61.8232045 36.9146966zM73.5358107 39.442205C73.2173411 39.5467916 72.1557755 39.9128445 69.9618735 39.9128445 65.8394607 39.9128445 63.5040166 38.0128554 63.5040166 33.7073755 63.5040166 30.0468461 65.8040752 27.2578712 69.8911024 27.2578712 72.0673118 27.2578712 72.7219438 27.6587864 73.3765759 27.9202528L73.3765759 30.5523478 72.562709 30.5523478C72.12039 29.3147402 71.465758 28.4431855 69.8203314 28.4431855 67.2018031 28.4431855 65.2379069 29.9248284 65.2379069 33.5330646 65.2379069 37.1064386 67.3964235 38.5706504 70.2803431 38.5706504 71.9434624 38.5706504 72.7396366 38.3614773 73.1642628 38.2743218L73.5358107 39.442205zM87 39.0238588C87 39.1807386 86.9823072 39.5990849 86.929229 39.7908269L82.0814131 39.7908269C82.0283348 39.5293605 82.0106421 39.2678941 82.0106421 39.0238588L83.2668279 38.6578059C83.6029904 38.5706504 83.7976107 38.1871664 83.7976107 37.7862512 83.7976107 37.6293714 83.7622252 37.4899226 83.7268397 37.3504739L82.8775872 34.8055344 78.4897831 34.8055344 77.3928321 37.5247848C77.3574466 37.6119403 77.3397538 37.7165269 77.3397538 37.8036823 77.3397538 38.2045975 77.6405307 38.5706504 78.2243917 38.7449613L79.1974935 39.0238588C79.1974935 39.1807386 79.1798007 39.5990849 79.1267224 39.7908269L74.8981531 39.7908269C74.8450749 39.5293605 74.8273821 39.250463 74.8273821 39.0238588 75.4112431 38.6055126 75.7827911 38.1697353 76.0127969 37.6293714L80.259059 27.6239242 81.9044855 27.1532847 85.6553503 37.4376294C85.8499707 37.9431311 86.4338317 38.6403748 87 39.0238588zM82.5060393 33.6725133L81.3383173 30.0642772 80.9667693 28.7046519 80.84292 28.7046519 80.400601 30.029415 78.9497948 33.6725133 82.5060393 33.6725133z"/>
      <rect width="87" height="1.168" y="19.27"/>
    </g>
  </g>
</svg>
