<svg width="20" height="20" viewBox="0 0 20 20" fill="none" xmlns="http://www.w3.org/2000/svg">
<path d="M9.99967 10.6666C10.3679 10.6666 10.6663 10.3682 10.6663 9.99998C10.6663 9.63179 10.3679 9.33331 9.99967 9.33331C9.63148 9.33331 9.33301 9.63179 9.33301 9.99998C9.33301 10.3682 9.63148 10.6666 9.99967 10.6666Z" fill="#19BB4F" stroke="#19BB4F" stroke-width="1.5" stroke-linecap="round" stroke-linejoin="round"/>
<path d="M9.99967 6.00002C10.3679 6.00002 10.6663 5.70154 10.6663 5.33335C10.6663 4.96516 10.3679 4.66669 9.99967 4.66669C9.63148 4.66669 9.33301 4.96516 9.33301 5.33335C9.33301 5.70154 9.63148 6.00002 9.99967 6.00002Z" fill="#19BB4F" stroke="#19BB4F" stroke-width="1.5" stroke-linecap="round" stroke-linejoin="round"/>
<path d="M9.99967 15.3333C10.3679 15.3333 10.6663 15.0349 10.6663 14.6667C10.6663 14.2985 10.3679 14 9.99967 14C9.63148 14 9.33301 14.2985 9.33301 14.6667C9.33301 15.0349 9.63148 15.3333 9.99967 15.3333Z" fill="#19BB4F" stroke="#19BB4F" stroke-width="1.5" stroke-linecap="round" stroke-linejoin="round"/>
</svg>
