<svg width="350" height="130" viewBox="0 0 350 130" fill="none" xmlns="http://www.w3.org/2000/svg">
<path d="M90.6976 128.725V104.51H111.737V85.028H90.6976V1.2745H73.0177L0 90.3081V104.51H70.0121V128.725H90.6976ZM70.0121 36.0504V85.028H28.2877L70.0121 36.0504Z" fill="#F2F2F2"/>
<path d="M121.455 65C121.455 84.4818 126.229 100.14 135.599 111.975C144.969 123.992 158.229 130 175.202 130C192.174 130 205.257 123.992 214.628 111.975C223.998 100.14 228.595 84.4818 228.595 65C228.595 45.7003 223.821 30.042 214.451 18.0252C205.081 6.0084 191.821 0 174.848 0C158.052 0 144.969 6.0084 135.599 18.0252C126.229 30.042 121.455 45.7003 121.455 65ZM151.511 32.409C156.991 24.7619 164.771 20.9384 174.848 20.9384C196.064 20.9384 206.672 36.4146 206.672 65C206.672 94.3137 196.241 109.062 175.202 109.062C165.124 109.062 157.345 105.238 151.864 97.591C146.207 89.944 143.378 79.0196 143.378 65C143.378 50.9804 146.03 40.056 151.511 32.409Z" fill="#F2F2F2"/>
<path d="M328.961 128.725V104.51H350V85.028H328.961V1.2745H311.281L238.263 90.3081V104.51H308.276V128.725H328.961ZM308.276 36.0504V85.028H266.551L308.276 36.0504Z" fill="#F2F2F2"/>
</svg>
