<svg width="40" height="40" viewBox="0 0 40 40" fill="none" xmlns="http://www.w3.org/2000/svg">
<path d="M34.5034 27.1953C34.9349 27.1953 35.2847 26.8455 35.2847 26.4141C35.2847 25.9826 34.9349 25.6328 34.5034 25.6328C34.0719 25.6328 33.7222 25.9826 33.7222 26.4141C33.7222 26.8455 34.0719 27.1953 34.5034 27.1953Z" fill="#19BB4F"/>
<path d="M4.76318 27.1953C5.19465 27.1953 5.54443 26.8455 5.54443 26.4141C5.54443 25.9826 5.19465 25.6328 4.76318 25.6328C4.33171 25.6328 3.98193 25.9826 3.98193 26.4141C3.98193 26.8455 4.33171 27.1953 4.76318 27.1953Z" fill="#19BB4F"/>
<path d="M38.617 38.4372H31.908L31.867 19.2362C31.866 18.8052 31.5164 18.4566 31.0856 18.4566C31.0851 18.4566 31.0845 18.4566 31.0839 18.4566C30.6523 18.4575 30.3033 18.808 30.3042 19.2396L30.3452 38.4372H28.0758L28.0557 29.8944C28.0547 29.4634 27.7051 29.1148 27.2744 29.1148C27.2737 29.1148 27.2731 29.1148 27.2725 29.1148C26.8409 29.1159 26.4919 29.4665 26.493 29.898L26.513 38.4372H24.6158V28.0966C26.8275 27.901 28.5665 26.0835 28.5665 23.8766V16.3044C28.5665 15.1003 28.311 13.9201 27.8223 12.8301C29.3654 12.9331 30.8017 13.5609 31.9067 14.628C33.1159 15.7956 33.7838 17.3483 33.7873 19.0007L33.8016 23.4473C33.803 23.878 34.1525 24.2262 34.5829 24.2262C34.5838 24.2262 34.5846 24.2262 34.5855 24.2262C35.017 24.2248 35.3657 23.8738 35.3644 23.4423L35.3501 18.9966C35.3456 16.9184 34.5083 14.9677 32.9923 13.5038C32.1263 12.6677 31.0978 12.0484 29.9769 11.6727C30.7709 10.917 31.2663 9.85055 31.2638 8.67055C31.2589 6.39383 29.4052 4.545 27.1295 4.545C27.1266 4.545 27.1235 4.545 27.1206 4.545C26.4577 4.54648 25.7984 4.70883 25.2143 5.01453C24.832 5.21469 24.6842 5.68687 24.8844 6.06922C25.0846 6.45156 25.5569 6.5993 25.9391 6.39914C26.3067 6.20672 26.7054 6.10867 27.1241 6.10773C28.5443 6.10703 29.6981 7.25586 29.7012 8.67383C29.7042 10.0918 28.553 11.2479 27.1351 11.2509C27.1014 11.251 27.0685 11.2539 27.0361 11.2581C26.9945 11.2598 26.9529 11.2613 26.9112 11.2637C25.7823 9.71867 24.1974 8.59789 22.3924 8.02914C23.3507 7.18836 23.9575 5.95609 23.9575 4.58398C23.9572 2.05633 21.9009 0 19.3734 0C16.8457 0 14.7894 2.05633 14.7894 4.58398C14.7894 6.02258 15.4561 7.30789 16.4962 8.14891C14.8393 8.74687 13.3873 9.81805 12.3327 11.2592C12.209 11.2537 12.0854 11.2504 11.9624 11.2504C11.904 11.2504 11.8457 11.2513 11.7875 11.2526C11.7732 11.2518 11.7591 11.2504 11.7447 11.2504C10.3267 11.2504 9.17313 10.0968 9.17313 8.67883C9.17313 7.26086 10.3267 6.10727 11.7447 6.10727C12.1733 6.10727 12.5973 6.21461 12.9707 6.41766C13.3498 6.62367 13.8242 6.48352 14.0305 6.10437C14.2366 5.72523 14.0963 5.25078 13.7172 5.04461C13.1153 4.71734 12.4332 4.54437 11.7446 4.54437C9.46492 4.54437 7.61023 6.39906 7.61023 8.67875C7.61023 9.92016 8.16102 11.0347 9.03008 11.7932C6.07594 12.9323 3.98148 15.7395 3.98148 19.0135V23.4448C3.98148 23.8763 4.33133 24.2262 4.76289 24.2262C5.19445 24.2262 5.5443 23.8763 5.5443 23.4448V19.0135C5.5443 15.7729 8.13148 13.1068 11.4149 12.8373C10.9284 13.9252 10.674 15.1028 10.674 16.3044V23.8766C10.674 26.1272 12.4823 27.9729 14.7564 28.1063V38.4371H12.6277V29.8959C12.6277 29.4644 12.2778 29.1145 11.8463 29.1145C11.4147 29.1145 11.0648 29.4644 11.0648 29.8959V38.4372H9.14406V19.2458C9.14406 18.8142 8.79422 18.4644 8.36266 18.4644C7.93109 18.4644 7.58125 18.8142 7.58125 19.2458V38.4372H1.38297C0.951406 38.4372 0.601562 38.787 0.601562 39.2186C0.601562 39.6502 0.951328 40 1.38297 40H38.6171C39.0487 40 39.3985 39.6502 39.3985 39.2186C39.3984 38.787 39.0486 38.4372 38.617 38.4372ZM16.3521 4.58398C16.3521 2.91812 17.7074 1.56281 19.3733 1.56281C21.0391 1.56281 22.3944 2.91812 22.3944 4.58398C22.3944 6.24984 21.0391 7.60516 19.3733 7.60516C17.7075 7.60516 16.3521 6.24984 16.3521 4.58398ZM23.8343 15.7864C23.4027 15.7864 23.0529 16.1362 23.0529 16.5678V38.4372H20.2699V27.5663C20.2699 27.1348 19.9201 26.7849 19.4885 26.7849C19.057 26.7849 18.7071 27.1348 18.7071 27.5663V38.4373H16.3192V16.5678C16.3192 16.1362 15.9694 15.7864 15.5378 15.7864C15.1063 15.7864 14.7564 16.1362 14.7564 16.5678V26.5398C13.3449 26.4116 12.2367 25.2664 12.2367 23.8766V16.3045C12.2367 14.9521 12.63 13.6358 13.3741 12.4979C14.7375 10.4128 17.0725 9.16797 19.6202 9.16797C22.172 9.16797 24.5091 10.416 25.8718 12.5066C26.6122 13.6425 27.0036 14.9558 27.0036 16.3045V23.8766C27.0036 25.2229 25.9637 26.3395 24.6157 26.5247V16.5678C24.6158 16.1362 24.2659 15.7864 23.8343 15.7864Z" fill="#19BB4F"/>
</svg>
