<svg width="20" height="20" viewBox="0 0 20 20" fill="none" xmlns="http://www.w3.org/2000/svg">
<path d="M16.6666 13.28V15.28C16.6674 15.4657 16.6294 15.6494 16.555 15.8195C16.4806 15.9897 16.3715 16.1424 16.2347 16.2679C16.0979 16.3934 15.9364 16.489 15.7605 16.5485C15.5846 16.6079 15.3982 16.63 15.2133 16.6133C13.1619 16.3904 11.1913 15.6894 9.45998 14.5666C7.84919 13.5431 6.48353 12.1774 5.45998 10.5666C4.33329 8.82745 3.63214 6.84731 3.41331 4.78665C3.39665 4.60229 3.41856 4.41649 3.47764 4.24107C3.53673 4.06564 3.63169 3.90444 3.75649 3.76773C3.88128 3.63102 4.03318 3.52179 4.2025 3.447C4.37183 3.37221 4.55487 3.33349 4.73998 3.33332H6.73998C7.06351 3.33013 7.37717 3.4447 7.62248 3.65567C7.8678 3.86664 8.02803 4.15961 8.07331 4.47998C8.15772 5.12003 8.31428 5.74847 8.53998 6.35332C8.62967 6.59193 8.64908 6.85126 8.59591 7.10057C8.54274 7.34988 8.41922 7.57872 8.23998 7.75998L7.39331 8.60665C8.34235 10.2757 9.72428 11.6576 11.3933 12.6066L12.24 11.76C12.4212 11.5807 12.6501 11.4572 12.8994 11.404C13.1487 11.3509 13.408 11.3703 13.6466 11.46C14.2515 11.6857 14.8799 11.8422 15.52 11.9266C15.8438 11.9723 16.1396 12.1355 16.351 12.385C16.5624 12.6345 16.6748 12.953 16.6666 13.28Z" stroke="#19BB4F" stroke-width="1.5" stroke-linecap="round" stroke-linejoin="round"/>
</svg>
