<svg width="40" height="40" viewBox="0 0 40 40" fill="none" xmlns="http://www.w3.org/2000/svg">
<path d="M36.6369 9.31226H35.5145C35.1941 8.35586 34.2902 7.66453 33.2272 7.66453H29.997V2.46961C29.997 2.13406 29.7827 1.83594 29.4646 1.72906L28.4192 1.37773C27.9963 1.23672 24.1666 0 20 0C15.8341 0 12.0045 1.2368 11.5798 1.37836L10.5362 1.72906C10.2181 1.83594 10.0038 2.13406 10.0038 2.46961V7.66453H6.77352C5.71055 7.66453 4.80672 8.35586 4.48617 9.31226H3.36313C1.50875 9.31226 0 10.8209 0 12.6754V33.3363V34.028C0 35.882 1.50875 37.3904 3.36313 37.3904H36.6377C38.4916 37.3904 40 35.882 40 34.028V33.3363V12.6754C40 10.8209 38.4912 9.31226 36.6369 9.31226ZM11.5662 3.03117L12.0757 2.86C12.2346 2.80703 16.0133 1.56242 20 1.56242C23.9874 1.56242 27.7661 2.80703 27.9234 2.85937L28.4346 3.03117V7.66445H26.9344V4.7207C26.9344 4.36609 26.6955 4.05602 26.3528 3.96539C25.0774 3.62828 22.5562 3.06273 20 3.06273C17.4305 3.06273 14.917 3.62742 13.6475 3.96398C13.3049 4.05477 13.0664 4.36477 13.0664 4.71914V7.66453H11.5662V3.03117H11.5662ZM14.629 7.66453V5.32734C15.9202 5.01602 17.9497 4.62523 20 4.62523C22.0406 4.62523 24.0755 5.01726 25.3719 5.3293V7.66453H14.629ZM5.92383 10.0767C5.92383 9.6082 6.305 9.22703 6.77352 9.22703H33.2272C33.6957 9.22703 34.0769 9.6082 34.0769 10.0767V10.0935V17.5668C34.0769 17.7527 34.0533 17.9342 34.0086 18.108C33.8151 18.8612 33.2259 19.4699 32.4456 19.6707L23.4928 21.9735C23.4216 20.8293 22.4681 19.9202 21.3062 19.9202H18.6945C17.5326 19.9202 16.5791 20.8293 16.5079 21.9735L7.55508 19.6706C6.77469 19.4698 6.18555 18.8611 5.99211 18.108C5.94742 17.9341 5.92391 17.7527 5.92391 17.5667V12.562H27.9248C28.3562 12.562 28.7061 12.2122 28.7061 11.7807C28.7061 11.3492 28.3562 10.9995 27.9248 10.9995H5.92383V10.0934V10.0767ZM18.0659 22.9827C18.0659 22.9818 18.0661 22.9809 18.0661 22.98V22.1368C18.0677 21.7759 18.3616 21.4827 18.723 21.4827H21.2776C21.6399 21.4827 21.9346 21.7775 21.9346 22.1398V22.98V24.6945C21.9346 25.0567 21.6399 25.3515 21.2776 25.3515H18.723C18.3606 25.3515 18.0659 25.0568 18.0659 24.6945V22.9827ZM1.5625 12.6754C1.5625 11.6825 2.37023 10.8748 3.36313 10.8748H4.36133V17.5668C4.36133 19.2718 5.51461 20.7591 7.16578 21.1839L16.5034 23.5857V24.6945C16.5034 25.9183 17.4991 26.914 18.7229 26.914H21.2775C22.5013 26.914 23.497 25.9183 23.497 24.6945V23.5857L32.8348 21.1838C34.486 20.7591 35.6392 19.2717 35.6392 17.5667V10.8747H36.6367C37.6296 10.8747 38.4373 11.6824 38.4373 12.6753V32.555H1.5625V12.6754ZM36.6377 35.828H3.36313C2.40023 35.828 1.61148 35.0687 1.56469 34.1176H38.4352C38.3885 35.0687 37.6001 35.828 36.6377 35.828Z" fill="#19BB4F"/>
<path d="M30.6895 12.0796C30.8473 12.4754 31.3202 12.6618 31.709 12.5014C32.1168 12.3332 32.3029 11.8454 32.1154 11.4474C31.9529 11.1026 31.5498 10.9221 31.184 11.0335C30.7499 11.1655 30.5147 11.6598 30.6895 12.0796Z" fill="#19BB4F"/>
</svg>
