<svg width="40" height="40" viewBox="0 0 40 40" fill="none" xmlns="http://www.w3.org/2000/svg">
<path d="M20 12.1875C19.5687 12.1875 19.2188 12.5375 19.2188 12.9688C19.2188 13.4 19.5687 13.75 20 13.75C20.4312 13.75 20.7812 13.4 20.7812 12.9688C20.7812 12.5375 20.4312 12.1875 20 12.1875Z" fill="#19BB4F"/>
<path d="M39.9997 12.9623C39.9995 12.9417 39.9984 12.9212 39.9966 12.9007C39.9962 12.8963 39.9962 12.8919 39.9958 12.8875C39.9933 12.8638 39.9896 12.8401 39.985 12.8167C39.983 12.8064 39.9802 12.7966 39.9778 12.7865C39.9746 12.7731 39.9714 12.7596 39.9675 12.7463C39.9642 12.7353 39.9604 12.7245 39.9566 12.7137C39.9525 12.7017 39.9483 12.6896 39.9435 12.6777C39.9392 12.667 39.9345 12.6565 39.9298 12.646C39.9245 12.6344 39.919 12.6229 39.9131 12.6114C39.9079 12.6013 39.9025 12.5913 39.8969 12.5815C39.8905 12.5702 39.8837 12.5592 39.8766 12.5482C39.8705 12.5387 39.8644 12.5293 39.8579 12.5201C39.8504 12.5095 39.8425 12.4991 39.8345 12.4888C39.8274 12.4798 39.8205 12.4709 39.8131 12.4623C39.8102 12.4588 39.8076 12.455 39.8045 12.4516L31.5232 3.07657C31.5212 3.07439 31.5191 3.07251 31.5171 3.0704C31.5042 3.0561 31.4906 3.04259 31.4766 3.02923C31.4714 3.02423 31.4664 3.01892 31.461 3.01407C31.4445 2.99915 31.4272 2.98517 31.4093 2.97165C31.4059 2.96907 31.4027 2.9661 31.3991 2.9636C31.3778 2.94806 31.3557 2.93337 31.3326 2.91985C31.3323 2.9197 31.332 2.91946 31.3317 2.91931C31.2859 2.89267 31.2369 2.87017 31.1847 2.85274C31.1843 2.85259 31.1838 2.85251 31.1834 2.85243C31.1756 2.84985 31.1675 2.84813 31.1596 2.84579C31.1413 2.84032 31.123 2.83485 31.1046 2.83079C31.0983 2.82938 31.0917 2.82868 31.0853 2.82751C31.0648 2.82353 31.0445 2.81993 31.024 2.81759C31.0177 2.81688 31.0113 2.81681 31.0049 2.81626C30.9841 2.81446 30.9634 2.81306 30.9428 2.81298C30.9411 2.81298 30.9394 2.81274 30.9377 2.81274H9.0625C9.0607 2.81274 9.05891 2.81298 9.05703 2.81306C9.03695 2.81321 9.01672 2.81462 8.99648 2.81634C8.98961 2.81696 8.98273 2.81704 8.97586 2.81774C8.95602 2.82001 8.93625 2.82353 8.91641 2.82735C8.90938 2.82868 8.90227 2.82946 8.89531 2.83095C8.87734 2.83493 8.85938 2.84032 8.84148 2.84563C8.83328 2.84806 8.82477 2.84985 8.81664 2.85251C8.81625 2.85267 8.81578 2.85274 8.81539 2.85282C8.76312 2.87024 8.71406 2.89274 8.66836 2.91938C8.66805 2.91954 8.66781 2.91978 8.6675 2.91993C8.64437 2.93345 8.62227 2.94806 8.60094 2.96368C8.59742 2.96626 8.59422 2.96915 8.59078 2.97181C8.57297 2.98532 8.55562 2.99931 8.53914 3.01415C8.53375 3.01907 8.52867 3.02439 8.52344 3.02939C8.50953 3.04267 8.49586 3.05626 8.48305 3.07048C8.48109 3.07267 8.47891 3.07454 8.47695 3.07665L0.195703 12.4517C0.192656 12.4551 0.190078 12.4588 0.187031 12.4624C0.179688 12.471 0.172656 12.4799 0.165703 12.4888C0.157656 12.4992 0.149766 12.5095 0.142266 12.5202C0.135781 12.5294 0.129609 12.5388 0.123516 12.5483C0.116484 12.5593 0.109687 12.5703 0.103281 12.5816C0.0976562 12.5914 0.0921875 12.6013 0.0870312 12.6115C0.0811719 12.6229 0.075625 12.6345 0.0703906 12.6461C0.065625 12.6566 0.0609375 12.667 0.0566406 12.6778C0.051875 12.6897 0.0476562 12.7017 0.0435156 12.7138C0.0397656 12.7246 0.0359375 12.7354 0.0326563 12.7464C0.02875 12.7597 0.0255469 12.7731 0.0223438 12.7866C0.0199219 12.7967 0.0171875 12.8066 0.0151563 12.8167C0.0104688 12.8402 0.00679688 12.8638 0.004375 12.8876C0.00390625 12.892 0.00390625 12.8964 0.00359375 12.9008C0.00179688 12.9213 0.000625 12.9418 0.00046875 12.9624C0.0003125 12.9645 0 12.9665 0 12.9688C0 12.9752 0.00078125 12.9814 0.0009375 12.9877C0.00132813 13.004 0.00195313 13.0202 0.00335938 13.0363C0.00421875 13.0466 0.00546875 13.0567 0.00671875 13.0667C0.00851563 13.0807 0.0105469 13.0946 0.013125 13.1085C0.0150781 13.1194 0.0171875 13.1302 0.0196094 13.1409C0.0225 13.1537 0.0258594 13.1663 0.029375 13.179C0.0324219 13.19 0.0354687 13.201 0.0389844 13.2118C0.0429688 13.224 0.0476563 13.236 0.0522656 13.2481C0.0563281 13.2587 0.0601563 13.2694 0.0646094 13.2797C0.0699219 13.292 0.0760937 13.3039 0.0821094 13.316C0.086875 13.3256 0.09125 13.3354 0.0964063 13.3448C0.103594 13.3578 0.111797 13.3705 0.119766 13.3832C0.124688 13.391 0.129141 13.3992 0.134297 13.4068C0.147578 13.4263 0.161797 13.4455 0.177031 13.4641L0.177813 13.465C0.178125 13.4654 0.178438 13.4658 0.17875 13.4662L19.3958 36.9016C19.3974 36.9035 19.3993 36.9053 19.4009 36.9072C19.4177 36.9271 19.435 36.9464 19.4535 36.9645C19.4556 36.9666 19.458 36.9685 19.4602 36.9705C19.4766 36.9863 19.4939 37.0012 19.5116 37.0154C19.5172 37.0199 19.5228 37.0242 19.5284 37.0285C19.5469 37.0425 19.5658 37.0558 19.5854 37.0681C19.5875 37.0694 19.5895 37.0709 19.5916 37.0722C19.6133 37.0854 19.6357 37.0974 19.6585 37.1085C19.6645 37.1113 19.6705 37.114 19.6765 37.1167C19.6955 37.1254 19.715 37.1334 19.7348 37.1405C19.7397 37.1423 19.7445 37.1442 19.7494 37.1459C19.7736 37.1541 19.7983 37.1611 19.8234 37.167C19.8283 37.1681 19.8333 37.1689 19.8383 37.1699C19.8589 37.1743 19.8798 37.1778 19.9009 37.1805C19.9079 37.1813 19.9148 37.1823 19.9217 37.183C19.9475 37.1856 19.9735 37.1874 19.9998 37.1874C20.0262 37.1874 20.0522 37.1856 20.078 37.183C20.0849 37.1823 20.0918 37.1813 20.0988 37.1805C20.1198 37.1778 20.1407 37.1743 20.1613 37.1699C20.1663 37.1689 20.1713 37.1681 20.1763 37.167C20.2013 37.1612 20.226 37.1541 20.2502 37.1459C20.2552 37.1442 20.26 37.1422 20.2648 37.1405C20.2846 37.1333 20.3041 37.1254 20.3231 37.1167C20.3291 37.114 20.3352 37.1113 20.3411 37.1085C20.3639 37.0974 20.3863 37.0854 20.408 37.0722C20.4101 37.0709 20.4121 37.0694 20.4142 37.0681C20.4338 37.0558 20.4527 37.0425 20.4711 37.0286C20.4768 37.0243 20.4824 37.0199 20.488 37.0154C20.5057 37.0012 20.523 36.9863 20.5395 36.9706C20.5416 36.9685 20.5439 36.9666 20.5461 36.9645C20.5646 36.9463 20.582 36.9271 20.5987 36.9072C20.6003 36.9053 20.6022 36.9036 20.6038 36.9016L39.8209 13.4662C39.8212 13.4658 39.8215 13.4654 39.8218 13.465L39.8226 13.4641C39.8378 13.4455 39.8521 13.4263 39.8653 13.4068C39.8705 13.3992 39.8749 13.391 39.8798 13.3832C39.8878 13.3705 39.896 13.3578 39.9032 13.3448C39.9084 13.3354 39.9127 13.3256 39.9175 13.316C39.9235 13.3039 39.9296 13.292 39.935 13.2797C39.9395 13.2694 39.9433 13.2587 39.9473 13.2481C39.952 13.2361 39.9566 13.2241 39.9606 13.2118C39.9641 13.201 39.9672 13.19 39.9702 13.179C39.9737 13.1663 39.9771 13.1538 39.98 13.1409C39.9824 13.1302 39.9845 13.1194 39.9865 13.1085C39.989 13.0945 39.9911 13.0807 39.9929 13.0667C39.9941 13.0567 39.9954 13.0465 39.9963 13.0363C39.9977 13.0202 39.9983 13.0039 39.9987 12.9877C39.9992 12.9813 40 12.9751 40 12.9688C40 12.9665 39.9997 12.9645 39.9997 12.9623ZM31.2498 5.12735L37.4863 12.1875H28.8964L31.2498 5.12735ZM29.8535 4.37501L27.5148 11.3913L21.668 4.37501H29.8535ZM18.332 4.37501L12.4852 11.3913L10.1464 4.37501H18.332ZM8.75023 5.12735L11.1036 12.1875H2.51375L8.75023 5.12735ZM2.43219 13.75H11.6244L17.9204 32.6381L2.43219 13.75ZM20 33.9357L13.2714 13.75H16.875C17.3065 13.75 17.6562 13.4002 17.6562 12.9688C17.6562 12.5373 17.3065 12.1875 16.875 12.1875H13.8555L20 4.81407L26.1445 12.1875H23.0516C22.6201 12.1875 22.2703 12.5373 22.2703 12.9688C22.2703 13.4002 22.6201 13.75 23.0516 13.75H26.7286L20 33.9357ZM22.0795 32.6381L28.3756 13.75H37.5678L22.0795 32.6381Z" fill="#19BB4F"/>
</svg>
