<svg width="40" height="40" viewBox="0 0 40 40" fill="none" xmlns="http://www.w3.org/2000/svg">
<g clip-path="url(#clip0)">
<path d="M32.1438 8.69176C29.7763 7.78332 25.5636 6.16995 20.2817 4.14885C20.1821 4.1108 20.0757 4.09408 19.9699 4.09846C19.9678 4.09854 19.9657 4.09861 19.9636 4.09877C19.9604 4.09893 19.9572 4.09908 19.954 4.09924C19.8973 4.1026 19.8403 4.11229 19.7839 4.12862C19.7836 4.12869 19.7832 4.12877 19.7829 4.12893C19.7785 4.13018 19.7742 4.13151 19.7699 4.13283C19.7677 4.13354 19.7654 4.13424 19.7632 4.13494C19.7602 4.13596 19.7572 4.1369 19.7542 4.13791C19.7504 4.13916 19.7467 4.14049 19.7429 4.14174C19.7411 4.14237 19.7393 4.14299 19.7375 4.14369C19.736 4.14424 19.7345 4.14471 19.7331 4.14526C19.73 4.14635 19.727 4.1476 19.7239 4.14877C19.7228 4.14916 19.7217 4.14955 19.7205 4.15002C19.7185 4.1508 19.7165 4.15158 19.7146 4.15229C19.7144 4.15237 19.7142 4.15237 19.7142 4.15244C18.8862 4.46971 9.81288 7.94246 7.85655 8.69254C7.55443 8.80832 7.35498 9.0984 7.35498 9.42199V20.8855C7.35498 24.8614 8.02116 27.4945 9.58249 29.6898C11.4815 32.3604 14.8152 34.3818 19.7744 35.8696C19.7991 35.877 19.8328 35.8849 19.8667 35.8922C19.9507 35.9101 20.0378 35.9098 20.1218 35.8916C20.1749 35.88 20.2253 35.8691 20.2256 35.869C25.152 34.384 28.4758 32.3441 30.3869 29.6329C31.9292 27.4451 32.617 24.7473 32.617 20.8878L32.6171 20.8655C32.6191 20.6088 32.6437 12.1568 32.6452 9.42168C32.6452 9.09793 32.4459 8.8077 32.1438 8.69176ZM8.91741 9.95918C10.858 9.21535 18.441 6.31315 19.2187 6.01534V9.67754C19.2187 10.109 19.5685 10.4588 20 10.4588C20.4314 10.4588 20.7812 10.109 20.7812 9.67754V6.01308C25.2219 7.71238 28.823 9.09152 31.0823 9.95809C31.0805 12.513 31.0759 16.5162 31.0641 19.2187H20.7812V16.7411C20.7812 16.3096 20.4314 15.9598 20 15.9598C19.5685 15.9598 19.2187 16.3096 19.2187 16.7411V19.2187H8.91741V9.95918ZM10.8557 28.7843C9.49702 26.8739 8.91733 24.5117 8.91733 20.8856V20.7813H19.2186V34.0565C15.1614 32.7137 12.4198 30.9838 10.8557 28.7843ZM31.0544 20.8569L31.0543 20.8855C31.0543 24.4047 30.4545 26.8248 29.1095 28.7325C27.5351 30.9661 24.8052 32.7121 20.7811 34.0538V20.7811H31.0549C31.0548 20.8067 31.0546 20.832 31.0544 20.8569Z" fill="#19BB4F"/>
<path d="M20 14.0046C19.6724 14.0046 19.3764 13.7938 19.2651 13.4866C19.1556 13.1847 19.2494 12.8353 19.4946 12.6278C19.751 12.411 20.1269 12.384 20.4123 12.5603C20.6863 12.7297 20.828 13.0611 20.7656 13.3764C20.6942 13.7374 20.3673 14.0046 20 14.0046Z" fill="#19BB4F"/>
<path d="M20 40C19.93 40 19.8599 39.9906 19.7918 39.9718C13.377 38.1986 9.02195 35.5975 6.4778 32.0199C3.88256 28.3704 3.54974 24.1949 3.54974 20.9649V6.787H3.55099C3.55201 6.5795 3.62967 6.22207 4.11006 6.03379C4.15311 6.01692 4.21678 5.99215 4.29951 5.9602C4.46264 5.89707 4.70069 5.80543 5.00053 5.6902C5.59905 5.46012 6.44421 5.13598 7.43054 4.75808C9.4025 4.00246 11.9388 3.03175 14.1949 2.16831C16.9693 1.10651 19.5897 0.103536 19.7106 0.0554886C19.8929 -0.0170898 20.0963 -0.018496 20.2793 0.0514261L20.4896 0.131895C21.4358 0.493928 25.3009 1.97276 28.9294 3.36238C30.7438 4.0573 32.4989 4.7298 33.8004 5.22926C34.4515 5.4791 34.9891 5.68574 35.3639 5.83012C35.552 5.90262 35.6992 5.95949 35.7995 5.9984L35.9172 6.04442C36.3733 6.22465 36.4461 6.58418 36.4481 6.78692H36.4502V20.9648C36.4502 25.6893 35.5439 29.0775 33.512 31.9504C30.9459 35.5785 26.5944 38.2022 20.2086 39.9716C20.1404 39.9906 20.0702 40 20 40ZM5.11233 7.3213V20.9649C5.11233 28.9204 7.65039 34.9351 19.9997 38.4077C33.0783 34.7172 34.8877 27.8457 34.8877 20.9649V7.32114C33.3126 6.71387 27.9703 4.66707 20.0011 1.61807C19.3137 1.88214 17.4516 2.59495 14.7534 3.62761C11.2284 4.97668 6.60218 6.74731 5.11233 7.3213ZM5.09897 6.6434C5.1078 6.69075 5.11233 6.73887 5.11233 6.787V6.80192C5.11319 6.74965 5.10889 6.69653 5.09897 6.6434ZM34.901 6.64395C34.891 6.69692 34.8867 6.74973 34.8877 6.802V6.78708C34.8877 6.73903 34.8921 6.69114 34.901 6.64395ZM5.09873 6.64215C5.09881 6.64254 5.09881 6.64286 5.09889 6.64317C5.09881 6.64286 5.09881 6.64254 5.09873 6.64215ZM34.9013 6.64215C34.9013 6.64239 34.9012 6.6427 34.9011 6.64293C34.9012 6.6427 34.9013 6.64239 34.9013 6.64215ZM5.09834 6.64012C5.09834 6.64028 5.09842 6.64051 5.09842 6.64075C5.09842 6.64051 5.09834 6.64028 5.09834 6.64012ZM34.9016 6.64004C34.9016 6.6402 34.9015 6.64043 34.9015 6.64059C34.9015 6.64036 34.9016 6.6402 34.9016 6.64004ZM5.09795 6.63809C5.09795 6.63825 5.09795 6.63832 5.09803 6.63848C5.09795 6.63832 5.09795 6.63825 5.09795 6.63809ZM34.902 6.63801V6.63832C34.902 6.63825 34.902 6.63809 34.902 6.63801Z" fill="#19BB4F"/>
</g>
<defs>
<clipPath id="clip0">
<rect width="40" height="40" fill="white"/>
</clipPath>
</defs>
</svg>
