<svg width="20" height="20" viewBox="0 0 20 20" fill="none" xmlns="http://www.w3.org/2000/svg">
<path d="M15.3334 10V16.6667H4.66669V10" stroke="white" stroke-width="1.5" stroke-linecap="round" stroke-linejoin="round"/>
<path d="M16.6666 6.66663H3.33331V9.99996H16.6666V6.66663Z" stroke="white" stroke-width="1.5" stroke-linecap="round" stroke-linejoin="round"/>
<path d="M10 16.6666V6.66663" stroke="white" stroke-width="1.5" stroke-linecap="round" stroke-linejoin="round"/>
<path d="M9.99998 6.66671H6.99998C6.55795 6.66671 6.13403 6.49111 5.82147 6.17855C5.50891 5.86599 5.33331 5.44207 5.33331 5.00004C5.33331 4.55801 5.50891 4.13409 5.82147 3.82153C6.13403 3.50897 6.55795 3.33337 6.99998 3.33337C9.33331 3.33337 9.99998 6.66671 9.99998 6.66671Z" stroke="white" stroke-width="1.5" stroke-linecap="round" stroke-linejoin="round"/>
<path d="M10 6.66671H13C13.442 6.66671 13.866 6.49111 14.1785 6.17855C14.4911 5.86599 14.6667 5.44207 14.6667 5.00004C14.6667 4.55801 14.4911 4.13409 14.1785 3.82153C13.866 3.50897 13.442 3.33337 13 3.33337C10.6667 3.33337 10 6.66671 10 6.66671Z" stroke="white" stroke-width="1.5" stroke-linecap="round" stroke-linejoin="round"/>
</svg>
